HIERARCHY
ROOT Hips
{
	OFFSET -0.179506 -22.333345 2.821913
	CHANNELS 6 Xposition Yposition Zposition Zrotation Yrotation Xrotation 
	JOINT LeftUpLeg
	{
		OFFSET 6.951974 -9.140623 -0.681533
		CHANNELS 3 Zrotation Yrotation Xrotation
		JOINT LeftLeg
		{
			OFFSET 3.427654 -37.519855 -0.449580
			CHANNELS 3 Zrotation Yrotation Xrotation
			JOINT LeftFoot
			{
				OFFSET -1.359570 -39.796059 -4.369333
				CHANNELS 3 Zrotation Yrotation Xrotation
				JOINT LeftToe
				{
					OFFSET 2.635814 -5.579078 11.928840
					CHANNELS 3 Zrotation Yrotation Xrotation
					End Site
					{
						OFFSET 0.000000 0.000000 0.000000
					}
				}
			}
		}
	}
	JOINT RightUpLeg
	{
		OFFSET -6.767048 -9.052170 -0.431982
		CHANNELS 3 Zrotation Yrotation Xrotation
		JOINT RightLeg
		{
			OFFSET -3.829005 -38.256897 -0.885003
			CHANNELS 3 Zrotation Yrotation Xrotation
			JOINT RightFoot
			{
				OFFSET 1.577377 -39.841461 -4.231180
				CHANNELS 3 Zrotation Yrotation Xrotation
				JOINT RightToe
				{
					OFFSET -2.537174 -4.814398 12.334795
					CHANNELS 3 Zrotation Yrotation Xrotation
					End Site
					{
						OFFSET 0.000000 0.000000 0.000000
					}
				}
			}
		}
	}
	JOINT Spine
	{
		OFFSET -0.253288 10.896323 -2.669631
		CHANNELS 3 Zrotation Yrotation Xrotation
		JOINT Spine1
		{
			OFFSET 0.548704 13.518043 0.109247
			CHANNELS 3 Zrotation Yrotation Xrotation
			JOINT Spine2
			{
				OFFSET 0.145701 5.292222 2.542457
				CHANNELS 3 Zrotation Yrotation Xrotation
				JOINT Neck
				{
					OFFSET -0.277840 21.387037 -4.285703
					CHANNELS 3 Zrotation Yrotation Xrotation
					JOINT Head
					{
						OFFSET 0.515184 6.496960 5.134897
						CHANNELS 3 Zrotation Yrotation Xrotation
						End Site
						{
							OFFSET 0.000000 0.000000 0.000000
						}
					}
				}
				JOINT LeftShoulder
				{
					OFFSET 7.884473 12.174932 -3.408961
					CHANNELS 3 Zrotation Yrotation Xrotation
					JOINT LeftArm
					{
						OFFSET 9.097692 3.046888 -0.886815
						CHANNELS 3 Zrotation Yrotation Xrotation
						JOINT LeftForeArm
						{
							OFFSET 25.961220 -1.277207 -2.745643
							CHANNELS 3 Zrotation Yrotation Xrotation
							JOINT LeftHand
							{
								OFFSET 24.923361 0.898606 -0.117091
								CHANNELS 3 Zrotation Yrotation Xrotation
								End Site
								{
									OFFSET 0.000000 0.000000 0.000000
								}
							}
						}
					}
				}
				JOINT RightShoulder
				{
					OFFSET -8.175920 11.883285 -3.861528
					CHANNELS 3 Zrotation Yrotation Xrotation
					JOINT RightArm
					{
						OFFSET -9.601238 3.255117 -0.914307
						CHANNELS 3 Zrotation Yrotation Xrotation
						JOINT RightForeArm
						{
							OFFSET -25.374195 -1.332924 -2.140099
							CHANNELS 3 Zrotation Yrotation Xrotation
							JOINT RightHand
							{
								OFFSET -25.529810 0.777228 -0.555919
								CHANNELS 3 Zrotation Yrotation Xrotation
								End Site
								{
									OFFSET 0.000000 0.000000 0.000000
								}
							}
						}
					}
				}
			}
		}
	}
}
MOTION
Frames: 6
Frame Time: 0.033333
3.336728 -50.766117 12.859049 -177.178512 -3.127859 2.145564 2.169670 6.682133 0.737836 -2.704291 8.030043 -3.329454 1.435071 15.299650 11.613966 nan nan nan -4.895574 -5.037259 -1.530956 2.871591 -0.113728 -3.154086 7.627354 -6.058348 18.722244 nan nan nan 1.717630 2.005288 -3.804951 -0.154699 -1.410660 5.795209 -2.398489 1.827442 -1.277823 -5.489956 4.113602 -1.494662 -3.904822 1.413133 -7.195796 -15.259366 0.869960 2.922343 -55.564507 4.992358 15.014067 -0.412675 -2.538316 17.563332 -10.568465 -7.560354 12.623521 13.990755 1.472283 4.955597 47.027935 1.080555 5.492314 -0.615522 10.041021 3.642606 5.365500 4.829051 10.723491 
3.299613 -50.757473 12.878222 -177.164005 -3.173670 2.049988 2.129507 6.636968 0.846112 -2.570262 7.853713 -3.307298 1.375217 15.286289 11.445759 nan nan nan -4.930944 -5.020709 -1.489910 2.893325 -0.119008 -3.107509 7.543908 -6.005561 18.678926 nan nan nan 1.715406 2.010717 -3.686854 -0.129475 -1.409650 5.924478 -2.380475 1.811852 -1.501934 -5.643672 4.099631 -1.224181 -3.842287 1.496219 -7.442659 -15.575922 0.969562 2.734924 -55.301007 5.077141 15.209498 -0.934556 -2.017064 17.228087 -10.777163 -7.729226 12.492928 14.152452 1.458379 4.809553 46.555629 1.097231 5.526092 -0.003652 9.592500 3.060605 5.631428 5.072260 10.208570 
3.299403 -50.757172 12.879407 -177.162845 -3.176300 2.042746 2.127532 6.634419 0.850469 -2.559964 7.845417 -3.306471 1.371748 15.285431 11.435067 nan nan nan -4.933426 -5.020062 -1.488290 2.895156 -0.121093 -3.104619 7.537213 -6.002040 18.677027 nan nan nan 1.715369 2.010778 -3.677979 -0.127604 -1.409541 5.932529 -2.379764 1.810623 -1.518870 -5.653003 4.099353 -1.207296 -3.839709 1.498685 -7.458913 -15.593832 0.977608 2.721308 -55.285862 5.080733 15.221673 -0.964498 -1.989375 17.204657 -10.790428 -7.739964 12.485738 14.162103 1.457357 4.800482 46.526895 1.098635 5.529385 0.033570 9.568379 3.026264 5.647877 5.088213 10.176341 
3.307473 -50.760548 12.879220 -177.163308 -3.176554 2.041541 2.126739 6.634514 0.851282 -2.557989 7.846626 -3.306119 1.370805 15.285340 11.434888 nan nan nan -4.934640 -5.020616 -1.486800 2.895501 -0.123584 -3.104253 7.535137 -6.001682 18.678103 nan nan nan 1.716372 2.010738 -3.675240 -0.126902 -1.409393 5.934117 -2.379281 1.810375 -1.521791 -5.654460 4.099949 -1.202816 -3.839680 1.498030 -7.464169 -15.594361 0.979476 2.717564 -55.286806 5.079164 15.223938 -0.969287 -1.983031 17.195714 -10.795167 -7.740932 12.481180 14.161046 1.457500 4.798158 46.523261 1.100513 5.530336 0.041029 9.560229 3.016140 5.653305 5.090081 10.165566 
3.222652 -50.775723 12.901937 -177.290925 -3.398737 1.738909 2.270298 6.734248 1.387339 -2.823873 8.761037 -3.634954 1.538849 15.087944 11.820694 nan nan nan -4.970344 -5.007390 -1.152963 3.021408 -0.328002 -3.056821 7.827868 -5.473106 18.629361 nan nan nan 1.936213 2.010942 -3.273085 0.117218 -1.394158 6.393097 -2.399939 1.527588 -2.198815 -5.876417 4.536454 -1.198908 -4.212494 1.348942 -6.957170 -15.502314 1.263513 2.494527 -54.967446 6.751692 17.257221 -4.769725 -5.139158 23.526100 -19.051184 -5.831531 16.838925 15.151300 1.841840 5.460010 46.035553 -0.829305 10.633834 7.796583 12.525096 16.840700 16.168947 3.722000 15.194181 
3.364992 -50.808304 12.752570 -176.959474 -2.793491 0.856975 2.215848 6.651644 2.045004 -3.285856 9.920274 -3.502439 1.241755 14.668993 12.157029 nan nan nan -5.330624 -6.442534 -0.698823 4.330201 -3.504636 -2.499967 9.885022 -5.929860 19.558026 nan nan nan 1.341756 2.066550 -2.200121 -0.002613 -1.582873 7.042786 -2.330330 1.130091 -3.021430 -5.455044 4.815140 -0.021152 -2.622169 0.307482 -8.123517 -14.824158 1.429291 3.217759 -55.424700 5.278883 15.910323 -0.292257 -19.036133 20.316690 -18.380499 -6.980129 17.065657 14.839770 2.256712 6.467588 47.728816 -0.979311 10.661254 5.656045 13.744588 17.139750 17.877686 3.905037 14.089690 
